<?xml version="1.0" encoding="UTF-8"?>
<svg width="32px" height="32px" viewBox="0 0 32 32" version="1.1" xmlns="http://www.w3.org/2000/svg" xmlns:xlink="http://www.w3.org/1999/xlink">
    <!-- Generator: Sketch 48.2 (47327) - http://www.bohemiancoding.com/sketch -->
    <title>Group 7 Copy</title>
    <desc>Created with Sketch.</desc>
    <defs></defs>
    <g id="Vans_Brand_Page" stroke="none" stroke-width="1" fill="none" fill-rule="evenodd" transform="translate(-952.000000, -571.000000)">
        <g id="Group-7-Copy" transform="translate(952.000000, 571.000000)">
            <circle id="Oval-Copy" fill="#FFFFFF" cx="16" cy="16" r="16"></circle>
            <path d="M16.6667005,18.9759389 C15.1988109,18.9759389 14.0091489,17.7857352 14.0091489,16.31727 C14.0091489,14.8494142 15.1988109,13.6586689 16.6667005,13.6586689 C18.1345563,13.6586689 19.3247938,14.8494142 19.3247938,16.31727 C19.32476,17.7857352 18.1345563,18.9759389 16.6667005,18.9759389 M16.6667005,11 C13.2125199,11 10.1137584,13.0577607 8,16.3173039 C10.1137922,19.5768809 13.2124861,21.6346077 16.6667005,21.6346077 C20.1208811,21.6346077 23.2196088,19.5769147 25.3333333,16.3173039 C23.219575,13.0577607 20.1208473,11 16.6667005,11" id="Page-1" fill="#1F2023"></path>
        </g>
    </g>
</svg>