<?xml version="1.0" encoding="utf-8"?>
<!-- Svg Vector Icons : http://www.onlinewebfonts.com/icon -->
<!DOCTYPE svg PUBLIC "-//W3C//DTD SVG 1.1//EN" "http://www.w3.org/Graphics/SVG/1.1/DTD/svg11.dtd">
<svg version="1.1" xmlns="http://www.w3.org/2000/svg" xmlns:xlink="http://www.w3.org/1999/xlink" x="0px" y="0px" viewBox="100 0 1000 1000" enable-background="new 0 0 1000 1000" xml:space="preserve">
<metadata> Svg Vector Icons : http://www.onlinewebfonts.com/icon </metadata>
<g fill="white"><path d="M717.8,10H282.2c-60.1,0-108.9,48.8-108.9,108.9v762.2c0,60.2,48.8,108.9,108.9,108.9h435.6c60.2,0,108.9-48.7,108.9-108.9V118.9C826.7,58.8,778,10,717.8,10z M418.3,64.4h163.3c15.1,0,27.2,12.2,27.2,27.2c0,15-12.1,27.2-27.2,27.2H418.3c-15,0-27.2-12.2-27.2-27.2C391.1,76.6,403.3,64.4,418.3,64.4z M500,935.6c-30.1,0-54.4-24.4-54.4-54.4c0-30.1,24.4-54.4,54.4-54.4s54.4,24.4,54.4,54.4C554.4,911.2,530.1,935.6,500,935.6z M772.2,772.2H227.8V173.3h544.4V772.2z"/></g>
</svg>