<?xml version="1.0" encoding="utf-8"?>
<!-- Svg Vector Icons : http://www.onlinewebfonts.com/icon -->
<!DOCTYPE svg PUBLIC "-//W3C//DTD SVG 1.1//EN" "http://www.w3.org/Graphics/SVG/1.1/DTD/svg11.dtd">
<svg version="1.1" xmlns="http://www.w3.org/2000/svg" xmlns:xlink="http://www.w3.org/1999/xlink" x="0px" y="0px" viewBox="100 0 1000 1000" enable-background="new 0 0 1000 1000" xml:space="preserve">
<metadata> Svg Vector Icons : http://www.onlinewebfonts.com/icon </metadata>
<g fill="white"><path d="M498.9,990c10.1-10.2,22.5-25,39.3-44.2C555,926.5,585.4,891.3,628,838c42.7-53.3,79.7-104.3,112.3-152c32.6-47.6,62.9-99.8,89.8-156.5c27-57.8,40.4-105.5,40.4-144C875.1,184.7,699.9,5.5,498.9,10.1c-198.8-4.5-374,174.7-369.5,375.4c0,105.5,92.1,271.1,276.3,495.6L498.9,990z M498.9,258.5c68.5,0,122.4,59,122.4,127c0,66.9-53.9,123.6-122.4,123.6c-65.1,0-124.7-57.8-124.7-123.6c0-34,12.4-63.5,37.1-88.5C436,270.9,465.2,258.5,498.9,258.5z"/></g>
</svg>