<?xml version="1.0" encoding="UTF-8"?>
<svg width="24px" height="24px" viewBox="4 4 24 24" version="1.1" xmlns="http://www.w3.org/2000/svg" xmlns:xlink="http://www.w3.org/1999/xlink">
    <!-- Generator: Sketch 48.2 (47327) - http://www.bohemiancoding.com/sketch -->
    <title>Mask</title>
    <desc>Created with Sketch.</desc>
    <defs>
        <rect id="path-1" x="0" y="0" width="24" height="24"></rect>
    </defs>
    <g id="Menu" stroke="none" stroke-width="1" fill="none" fill-rule="evenodd" transform="translate(-1265.000000, -8.000000)">
        <g id="Page-1" transform="translate(1265.000000, 8.000000)">
            <mask id="mask-2" fill="white">
                <use xlink:href="#path-1"></use>
            </mask>
            <g id="Mask"></g>
            <g mask="url(#mask-2)">
                <g transform="translate(12.000000, 11.500000) scale(-1, 1) translate(-12.000000, -11.500000) translate(4.000000, 4.000000)">
                    <g id="Group-3" transform="translate(3.000000, 0.000000)">
                        <path d="M0.521890563,6.13823491 C0.523511446,9.53870619 3.28684104,12.2940137 6.69396686,12.292396 C9.17095073,12.2912361 11.4070347,10.8115746 12.3723774,8.53489764 C13.6627528,5.3877364 12.1525184,1.79243708 8.99919834,0.504612401 C5.89624796,-0.762670328 2.34721846,0.675357832 1.00754369,3.7427931 C0.685905533,4.50055608 0.520728421,5.3152749 0.521890563,6.13823491 M2.47000796,6.13823491 C2.47000796,3.81192761 4.3595595,1.92606659 6.69041927,1.92606659 C9.02127904,1.92606659 10.9108306,3.81192761 10.9108306,6.13823491 C10.9108306,8.46454222 9.02127904,10.3504032 6.69041927,10.3504032 C4.3595595,10.3504032 2.47000796,8.46454222 2.47000796,6.13823491" id="Fill-1" fill="#FFFFFF"></path>
                    </g>
                    <g id="Group-6" transform="translate(0.000000, 9.000000)">
                        <path d="M0.213471748,4.19733888 L4.09498862,0.323403095 C4.38118526,0.0393392712 4.8435382,0.0393392712 5.12973484,0.323403095 L5.3877763,0.580940561 C5.67239602,0.866578225 5.67239602,1.32802813 5.3877763,1.6136658 L1.50511257,5.48645697 C1.21891593,5.77052079 0.756562992,5.77052079 0.47036635,5.48645697 L0.212324898,5.2289195 C-0.0712339874,4.94311015 -0.0707179045,4.4825187 0.213471748,4.19733888" id="Fill-4" fill="#FFFFFF"></path>
                    </g>
                </g>
            </g>
        </g>
    </g>
</svg>